<svg width="155" height="56" viewBox="0 0 155 56" fill="none" xmlns="http://www.w3.org/2000/svg">
<g clip-path="url(#clip0)">
<path d="M57.3999 18.2C57.3999 19 57.1999 19.7 56.6999 20.2C56.0999 20.8 55.3999 21.1 54.4999 21.1C53.5999 21.1 52.8999 20.8 52.2999 20.2C51.6999 19.6 51.3999 18.9 51.3999 18C51.3999 17.1 51.6999 16.4 52.2999 15.8C52.8999 15.2 53.5999 14.9 54.4999 14.9C54.8999 14.9 55.2999 15 55.6999 15.2C56.0999 15.4 56.3999 15.6 56.5999 15.9L56.0999 16.4C55.6999 15.9 55.1999 15.7 54.4999 15.7C53.8999 15.7 53.2999 15.9 52.8999 16.4C52.3999 16.8 52.1999 17.4 52.1999 18.1C52.1999 18.8 52.3999 19.4 52.8999 19.8C53.3999 20.2 53.8999 20.5 54.4999 20.5C55.1999 20.5 55.6999 20.3 56.1999 19.8C56.4999 19.5 56.6999 19.1 56.6999 18.6H54.4999V17.9H57.3999C57.3999 17.9 57.3999 18.1 57.3999 18.2Z" fill="white" stroke="white" stroke-width="0.2" stroke-miterlimit="10"/>
<path d="M62 15.7H59.3V17.6H61.8V18.3H59.3V20.2H62V21H58.5V15H62V15.7Z" fill="white" stroke="white" stroke-width="0.2" stroke-miterlimit="10"/>
<path d="M65.2998 21H64.4998V15.7H62.7998V15H66.9998V15.7H65.2998V21Z" fill="white" stroke="white" stroke-width="0.2" stroke-miterlimit="10"/>
<path d="M69.8999 21V15H70.6999V21H69.8999Z" fill="white" stroke="white" stroke-width="0.2" stroke-miterlimit="10"/>
<path d="M74.0999 21H73.2999V15.7H71.5999V15H75.6999V15.7H73.9999V21H74.0999Z" fill="white" stroke="white" stroke-width="0.2" stroke-miterlimit="10"/>
<path d="M83.5998 20.2C82.9998 20.8 82.2998 21.1 81.3998 21.1C80.4998 21.1 79.7998 20.8 79.1998 20.2C78.5998 19.6 78.2998 18.9 78.2998 18C78.2998 17.1 78.5998 16.4 79.1998 15.8C79.7998 15.2 80.4998 14.9 81.3998 14.9C82.2998 14.9 82.9998 15.2 83.5998 15.8C84.1998 16.4 84.4998 17.1 84.4998 18C84.4998 18.9 84.1998 19.6 83.5998 20.2ZM79.7998 19.7C80.1998 20.1 80.7998 20.4 81.3998 20.4C81.9998 20.4 82.5998 20.2 82.9998 19.7C83.3998 19.3 83.6998 18.7 83.6998 18C83.6998 17.3 83.4998 16.7 82.9998 16.3C82.5998 15.9 81.9998 15.6 81.3998 15.6C80.7998 15.6 80.1998 15.8 79.7998 16.3C79.3998 16.7 79.0998 17.3 79.0998 18C79.0998 18.7 79.2998 19.3 79.7998 19.7Z" fill="white" stroke="white" stroke-width="0.2" stroke-miterlimit="10"/>
<path d="M85.5999 21V15H86.4999L89.3999 19.7V18.5V15H90.1999V21H89.3999L86.2999 16.1V17.3V21H85.5999Z" fill="white" stroke="white" stroke-width="0.2" stroke-miterlimit="10"/>
<path d="M78.1001 29.8C75.7001 29.8 73.8001 31.6 73.8001 34.1C73.8001 36.5 75.7001 38.4 78.1001 38.4C80.5001 38.4 82.4001 36.6 82.4001 34.1C82.4001 31.5 80.5001 29.8 78.1001 29.8ZM78.1001 36.6C76.8001 36.6 75.7001 35.5 75.7001 34C75.7001 32.5 76.8001 31.4 78.1001 31.4C79.4001 31.4 80.5001 32.4 80.5001 34C80.5001 35.5 79.4001 36.6 78.1001 36.6ZM68.8001 29.8C66.4001 29.8 64.5001 31.6 64.5001 34.1C64.5001 36.5 66.4001 38.4 68.8001 38.4C71.2001 38.4 73.1001 36.6 73.1001 34.1C73.1001 31.5 71.2001 29.8 68.8001 29.8ZM68.8001 36.6C67.5001 36.6 66.4001 35.5 66.4001 34C66.4001 32.5 67.5001 31.4 68.8001 31.4C70.1001 31.4 71.2001 32.4 71.2001 34C71.2001 35.5 70.1001 36.6 68.8001 36.6ZM57.7001 31.1V32.9H62.0001C61.9001 33.9 61.5001 34.7 61.0001 35.2C60.4001 35.8 59.4001 36.5 57.7001 36.5C55.0001 36.5 53.0001 34.4 53.0001 31.7C53.0001 29 55.1001 26.9 57.7001 26.9C59.1001 26.9 60.2001 27.5 61.0001 28.2L62.3001 26.9C61.2001 25.9 59.8001 25.1 57.8001 25.1C54.2001 25.1 51.1001 28.1 51.1001 31.7C51.1001 35.3 54.2001 38.3 57.8001 38.3C59.8001 38.3 61.2001 37.7 62.4001 36.4C63.6001 35.2 64.0001 33.5 64.0001 32.2C64.0001 31.8 64.0001 31.4 63.9001 31.1H57.7001ZM103.1 32.5C102.7 31.5 101.7 29.8 99.5001 29.8C97.3001 29.8 95.5001 31.5 95.5001 34.1C95.5001 36.5 97.3001 38.4 99.7001 38.4C101.6 38.4 102.8 37.2 103.2 36.5L101.8 35.5C101.3 36.2 100.7 36.7 99.7001 36.7C98.7001 36.7 98.1001 36.3 97.6001 35.4L103.3 33L103.1 32.5ZM97.3001 33.9C97.3001 32.3 98.6001 31.4 99.5001 31.4C100.2 31.4 100.9 31.8 101.1 32.3L97.3001 33.9ZM92.6001 38H94.5001V25.5H92.6001V38ZM89.6001 30.7C89.1001 30.2 88.3001 29.7 87.3001 29.7C85.2001 29.7 83.2001 31.6 83.2001 34C83.2001 36.4 85.1001 38.2 87.3001 38.2C88.3001 38.2 89.1001 37.7 89.5001 37.2H89.6001V37.8C89.6001 39.4 88.7001 40.3 87.3001 40.3C86.2001 40.3 85.4001 39.5 85.2001 38.8L83.6001 39.5C84.1001 40.6 85.3001 42 87.4001 42C89.6001 42 91.4001 40.7 91.4001 37.6V30H89.6001V30.7ZM87.4001 36.6C86.1001 36.6 85.0001 35.5 85.0001 34C85.0001 32.5 86.1001 31.4 87.4001 31.4C88.7001 31.4 89.7001 32.5 89.7001 34C89.7001 35.5 88.7001 36.6 87.4001 36.6ZM111.8 25.5H107.3V38H109.2V33.3H111.8C113.9 33.3 115.9 31.8 115.9 29.4C115.9 27 113.9 25.5 111.8 25.5ZM111.9 31.5H109.2V27.2H111.9C113.3 27.2 114.1 28.4 114.1 29.3C114 30.4 113.2 31.5 111.9 31.5ZM123.4 29.7C122 29.7 120.6 30.3 120.1 31.6L121.8 32.3C122.2 31.6 122.8 31.4 123.5 31.4C124.5 31.4 125.4 32 125.5 33V33.1C125.2 32.9 124.4 32.6 123.6 32.6C121.8 32.6 120 33.6 120 35.4C120 37.1 121.5 38.2 123.1 38.2C124.4 38.2 125 37.6 125.5 37H125.6V38H127.4V33.2C127.2 31 125.5 29.7 123.4 29.7ZM123.2 36.6C122.6 36.6 121.7 36.3 121.7 35.5C121.7 34.5 122.8 34.2 123.7 34.2C124.5 34.2 124.9 34.4 125.4 34.6C125.2 35.8 124.2 36.6 123.2 36.6ZM133.7 30L131.6 35.4H131.5L129.3 30H127.3L130.6 37.6L128.7 41.8H130.6L135.7 30H133.7ZM116.9 38H118.8V25.5H116.9V38Z" fill="white"/>
<path d="M20.3999 15.5C20.0999 15.8 19.8999 16.3 19.8999 16.9V39C19.8999 39.6 20.0999 40.1 20.3999 40.4L20.4999 40.5L32.8999 28.1V28V27.9L20.3999 15.5Z" fill="url(#paint0_linear)"/>
<path d="M36.9999 32.3L32.8999 28.2001V28V27.9L36.9999 23.8L37.0999 23.9L41.9999 26.7001C43.3999 27.5001 43.3999 28.8 41.9999 29.6L36.9999 32.3Z" fill="url(#paint1_linear)"/>
<path d="M37.0999 32.2L32.8999 28L20.3999 40.5C20.8999 41 21.5999 41 22.4999 40.6L37.0999 32.2Z" fill="url(#paint2_linear)"/>
<path d="M37.0999 23.8L22.4999 15.5C21.5999 15 20.8999 15.1 20.3999 15.6L32.8999 28L37.0999 23.8Z" fill="url(#paint3_linear)"/>
<path opacity="0.2" d="M36.9999 32.1L22.4999 40.3C21.6999 40.8 20.9999 40.7 20.4999 40.3L20.3999 40.4L20.4999 40.5C20.9999 40.9 21.6999 41 22.4999 40.5L36.9999 32.1Z" fill="black"/>
<path opacity="0.12" d="M20.4 40.3C20.1 40 20 39.5 20 38.9V39C20 39.6 20.2 40.1 20.5 40.4V40.3H20.4Z" fill="black"/>
<path opacity="0.12" d="M42 29.3L37 32.1L37.1 32.2L42 29.4C42.7 29 43 28.5 43 28C43 28.5 42.6 28.9 42 29.3Z" fill="black"/>
<path opacity="0.25" d="M22.5 15.6L42 26.7C42.6 27.1 43 27.5 43 28C43 27.5 42.7 27 42 26.6L22.5 15.5C21.1 14.7 20 15.4 20 17V17.1C20 15.5 21.1 14.8 22.5 15.6Z" fill="white"/>
</g>
<defs>
<linearGradient id="paint0_linear" x1="31.7996" y1="16.7097" x2="15.0172" y2="33.4921" gradientUnits="userSpaceOnUse">
<stop stop-color="#00A0FF"/>
<stop offset="0.00657445" stop-color="#00A1FF"/>
<stop offset="0.2601" stop-color="#00BEFF"/>
<stop offset="0.5122" stop-color="#00D2FF"/>
<stop offset="0.7604" stop-color="#00DFFF"/>
<stop offset="1" stop-color="#00E3FF"/>
</linearGradient>
<linearGradient id="paint1_linear" x1="43.8343" y1="28.0014" x2="19.6374" y2="28.0014" gradientUnits="userSpaceOnUse">
<stop stop-color="#FFE000"/>
<stop offset="0.4087" stop-color="#FFBD00"/>
<stop offset="0.7754" stop-color="#FFA500"/>
<stop offset="1" stop-color="#FF9C00"/>
</linearGradient>
<linearGradient id="paint2_linear" x1="34.8269" y1="30.2961" x2="12.0686" y2="53.0544" gradientUnits="userSpaceOnUse">
<stop stop-color="#FF3A44"/>
<stop offset="1" stop-color="#C31162"/>
</linearGradient>
<linearGradient id="paint3_linear" x1="17.2972" y1="8.17619" x2="27.4598" y2="18.3387" gradientUnits="userSpaceOnUse">
<stop stop-color="#32A071"/>
<stop offset="0.0685" stop-color="#2DA771"/>
<stop offset="0.4762" stop-color="#15CF74"/>
<stop offset="0.8009" stop-color="#06E775"/>
<stop offset="1" stop-color="#00F076"/>
</linearGradient>
<clipPath id="clip0">
<rect width="155" height="56" fill="white"/>
</clipPath>
</defs>
</svg>
