<svg width="155" height="56" viewBox="0 0 155 56" fill="none" xmlns="http://www.w3.org/2000/svg">
<path d="M41.7689 28.3006C41.7796 27.4659 42.0013 26.6475 42.4134 25.9216C42.8254 25.1956 43.4143 24.5857 44.1254 24.1485C43.6737 23.5034 43.0777 22.9724 42.3849 22.5979C41.6921 22.2233 40.9215 22.0155 40.1343 21.9908C38.455 21.8146 36.8271 22.9957 35.9714 22.9957C35.0991 22.9957 33.7816 22.0083 32.3629 22.0375C31.4452 22.0672 30.5509 22.334 29.767 22.8121C28.9831 23.2901 28.3364 23.9631 27.89 24.7654C25.9559 28.1138 27.3985 33.0349 29.2511 35.7415C30.178 37.0668 31.2613 38.5473 32.6788 38.4948C34.0658 38.4372 34.5839 37.6103 36.2582 37.6103C37.9169 37.6103 38.403 38.4948 39.8492 38.4614C41.3376 38.4372 42.2753 37.1302 43.1697 35.7923C43.8357 34.8479 44.3481 33.8042 44.6881 32.6997C43.8234 32.334 43.0855 31.7218 42.5664 30.9395C42.0472 30.1572 41.7699 29.2394 41.7689 28.3006Z" fill="white"/>
<path d="M39.0372 20.2108C39.8488 19.2366 40.2486 17.9845 40.1518 16.7202C38.9119 16.8504 37.7667 17.443 36.9442 18.3798C36.542 18.8375 36.234 19.3699 36.0378 19.9467C35.8415 20.5235 35.7609 21.1333 35.8005 21.7412C36.4206 21.7476 37.0341 21.6132 37.5948 21.3481C38.1554 21.083 38.6486 20.6942 39.0372 20.2108Z" fill="white"/>
<path d="M59.3022 35.1397H54.5688L53.4321 38.4961H51.4272L55.9106 26.0781H57.9936L62.477 38.4961H60.438L59.3022 35.1397ZM55.0591 33.5908H58.8111L56.9615 28.1436H56.9097L55.0591 33.5908Z" fill="white"/>
<path d="M72.1597 33.9697C72.1597 36.7832 70.6538 38.5908 68.3813 38.5908C67.8057 38.6209 67.2332 38.4883 66.7294 38.2082C66.2256 37.928 65.8109 37.5117 65.5327 37.0068H65.4897V41.4912H63.6313V29.4423H65.4302V30.9482H65.4644C65.7553 30.4457 66.177 30.0316 66.6847 29.7497C67.1923 29.4679 67.7668 29.3289 68.3472 29.3476C70.645 29.3476 72.1597 31.164 72.1597 33.9697ZM70.2495 33.9697C70.2495 32.1367 69.3022 30.9316 67.8569 30.9316C66.437 30.9316 65.4819 32.1621 65.4819 33.9697C65.4819 35.7939 66.437 37.0156 67.8569 37.0156C69.3022 37.0156 70.2495 35.8193 70.2495 33.9697Z" fill="white"/>
<path d="M82.1245 33.9697C82.1245 36.7832 80.6187 38.5908 78.3462 38.5908C77.7705 38.6209 77.198 38.4883 76.6942 38.2081C76.1905 37.928 75.7757 37.5117 75.4976 37.0068H75.4546V41.4912H73.5962V29.4423H75.395V30.9482H75.4292C75.7201 30.4457 76.1418 30.0315 76.6495 29.7497C77.1571 29.4679 77.7317 29.3289 78.312 29.3476C80.6099 29.3476 82.1245 31.164 82.1245 33.9697ZM80.2144 33.9697C80.2144 32.1367 79.2671 30.9316 77.8218 30.9316C76.4018 30.9316 75.4468 32.1621 75.4468 33.9697C75.4468 35.7939 76.4018 37.0156 77.8218 37.0156C79.2671 37.0156 80.2144 35.8193 80.2144 33.9697Z" fill="white"/>
<path d="M88.7105 35.0362C88.8482 36.2676 90.0445 37.0762 91.6792 37.0762C93.2456 37.0762 94.3726 36.2676 94.3726 35.1572C94.3726 34.1934 93.6929 33.6162 92.0835 33.2207L90.4742 32.833C88.1939 32.2822 87.1353 31.2158 87.1353 29.4854C87.1353 27.3428 89.0025 25.8711 91.6538 25.8711C94.2778 25.8711 96.0767 27.3428 96.1372 29.4854H94.2612C94.1489 28.2461 93.1245 27.4981 91.6274 27.4981C90.1304 27.4981 89.106 28.2549 89.106 29.3565C89.106 30.2344 89.7603 30.751 91.3608 31.1465L92.729 31.4824C95.2769 32.0849 96.3355 33.1084 96.3355 34.9248C96.3355 37.248 94.4849 38.7031 91.5415 38.7031C88.7876 38.7031 86.9282 37.2822 86.8081 35.0361L88.7105 35.0362Z" fill="white"/>
<path d="M100.346 27.2998V29.4424H102.068V30.9141H100.346V35.9053C100.346 36.6807 100.691 37.042 101.448 37.042C101.652 37.0384 101.856 37.0241 102.059 36.999V38.4619C101.719 38.5255 101.373 38.5543 101.027 38.5478C99.1938 38.5478 98.479 37.8593 98.479 36.1035V30.9141H97.1626V29.4424H98.479V27.2998H100.346Z" fill="white"/>
<path d="M103.065 33.9697C103.065 31.1211 104.743 29.3311 107.359 29.3311C109.984 29.3311 111.654 31.1211 111.654 33.9697C111.654 36.8262 109.993 38.6084 107.359 38.6084C104.726 38.6084 103.065 36.8262 103.065 33.9697ZM109.76 33.9697C109.76 32.0156 108.865 30.8623 107.359 30.8623C105.853 30.8623 104.959 32.0244 104.959 33.9697C104.959 35.9316 105.853 37.0762 107.359 37.0762C108.865 37.0762 109.76 35.9316 109.76 33.9697Z" fill="white"/>
<path d="M113.186 29.4425H114.958V30.9835H115.001C115.121 30.5022 115.403 30.0769 115.8 29.779C116.197 29.4811 116.684 29.3288 117.179 29.3478C117.393 29.347 117.607 29.3703 117.816 29.4171V31.1554C117.546 31.0728 117.264 31.0348 116.981 31.0431C116.711 31.0321 116.442 31.0797 116.192 31.1826C115.942 31.2855 115.717 31.4412 115.533 31.6391C115.35 31.837 115.211 32.0724 115.126 32.3291C115.042 32.5857 115.014 32.8576 115.044 33.1261V38.4962H113.186V29.4425Z" fill="white"/>
<path d="M126.384 35.8369C126.134 37.4805 124.534 38.6084 122.486 38.6084C119.852 38.6084 118.217 36.8437 118.217 34.0127C118.217 31.1729 119.861 29.3311 122.408 29.3311C124.913 29.3311 126.488 31.0518 126.488 33.7969V34.4336H120.093V34.5459C120.064 34.8791 120.105 35.2148 120.216 35.5306C120.326 35.8464 120.502 36.1352 120.732 36.3778C120.963 36.6203 121.242 36.8111 121.552 36.9374C121.861 37.0637 122.195 37.1226 122.529 37.1103C122.968 37.1515 123.409 37.0498 123.785 36.8203C124.162 36.5909 124.455 36.246 124.62 35.8369H126.384ZM120.102 33.1348H124.628C124.645 32.8352 124.6 32.5354 124.495 32.2541C124.39 31.9729 124.229 31.7164 124.02 31.5006C123.812 31.2849 123.561 31.1145 123.283 31.0003C123.006 30.8861 122.708 30.8305 122.408 30.8369C122.105 30.8351 121.805 30.8933 121.525 31.008C121.245 31.1227 120.99 31.2918 120.776 31.5054C120.562 31.7191 120.392 31.973 120.276 32.2527C120.16 32.5323 120.101 32.8321 120.102 33.1348Z" fill="white"/>
<path d="M54.8262 16.7306C55.2158 16.7027 55.6068 16.7615 55.9709 16.903C56.335 17.0444 56.6632 17.2649 56.9318 17.5485C57.2004 17.8321 57.4026 18.1718 57.524 18.5431C57.6455 18.9144 57.6829 19.308 57.6338 19.6955C57.6338 21.6017 56.6035 22.6975 54.8262 22.6975H52.6709V16.7306H54.8262ZM53.5977 21.8536H54.7227C55.0011 21.8703 55.2797 21.8246 55.5382 21.72C55.7968 21.6154 56.0287 21.4545 56.2172 21.2489C56.4057 21.0433 56.546 20.7983 56.6279 20.5317C56.7097 20.2651 56.7311 19.9836 56.6904 19.7076C56.7282 19.4328 56.7046 19.153 56.6215 18.8884C56.5384 18.6237 56.3977 18.3807 56.2097 18.1768C56.0216 17.9728 55.7908 17.813 55.5337 17.7088C55.2766 17.6046 54.9997 17.5585 54.7227 17.5739H53.5977V21.8536Z" fill="white"/>
<path d="M58.6807 20.444C58.6524 20.1481 58.6862 19.8496 58.7801 19.5675C58.8739 19.2854 59.0257 19.0261 59.2256 18.8061C59.4256 18.5861 59.6693 18.4103 59.9411 18.2901C60.213 18.1698 60.507 18.1077 60.8042 18.1077C61.1015 18.1077 61.3955 18.1698 61.6673 18.2901C61.9392 18.4103 62.1829 18.5861 62.3828 18.8061C62.5828 19.0261 62.7345 19.2854 62.8284 19.5675C62.9222 19.8496 62.9561 20.1481 62.9278 20.444C62.9566 20.7403 62.9232 21.0392 62.8296 21.3218C62.736 21.6043 62.5843 21.8641 62.3843 22.0845C62.1843 22.3049 61.9404 22.4811 61.6683 22.6016C61.3962 22.7221 61.1019 22.7844 60.8042 22.7844C60.5066 22.7844 60.2123 22.7221 59.9402 22.6016C59.668 22.4811 59.4241 22.3049 59.2241 22.0845C59.0242 21.8641 58.8725 21.6043 58.7789 21.3218C58.6853 21.0392 58.6519 20.7403 58.6807 20.444ZM62.0137 20.444C62.0137 19.468 61.5752 18.8972 60.8057 18.8972C60.0332 18.8972 59.5987 19.468 59.5987 20.4441C59.5987 21.4279 60.0333 21.9943 60.8057 21.9943C61.5752 21.9943 62.0137 21.424 62.0137 20.444Z" fill="white"/>
<path d="M68.5733 22.6975H67.6514L66.7207 19.3811H66.6504L65.7237 22.6975H64.8106L63.5694 18.1946H64.4707L65.2774 21.6306H65.3438L66.2696 18.1946H67.1221L68.0479 21.6306H68.1182L68.9209 18.1946H69.8096L68.5733 22.6975Z" fill="white"/>
<path d="M70.8536 18.1946H71.709V18.91H71.7754C71.8881 18.653 72.0781 18.4377 72.319 18.2939C72.5598 18.15 72.8396 18.085 73.1192 18.1077C73.3383 18.0912 73.5583 18.1243 73.7629 18.2044C73.9675 18.2845 74.1514 18.4096 74.3011 18.5704C74.4508 18.7313 74.5624 18.9237 74.6276 19.1335C74.6928 19.3434 74.7099 19.5652 74.6778 19.7825V22.6975H73.7891V20.0057C73.7891 19.282 73.4746 18.9222 72.8174 18.9222C72.6687 18.9152 72.5202 18.9406 72.3821 18.9964C72.244 19.0522 72.1197 19.1372 72.0176 19.2456C71.9154 19.354 71.838 19.4832 71.7904 19.6243C71.7429 19.7655 71.7265 19.9152 71.7422 20.0633V22.6976H70.8535L70.8536 18.1946Z" fill="white"/>
<path d="M76.0938 16.4368H76.9825V22.6975H76.0938V16.4368Z" fill="white"/>
<path d="M78.2178 20.4441C78.1895 20.1482 78.2234 19.8496 78.3172 19.5675C78.4111 19.2854 78.5629 19.0261 78.7628 18.8061C78.9628 18.5861 79.2065 18.4104 79.4784 18.2901C79.7503 18.1698 80.0443 18.1077 80.3416 18.1077C80.6389 18.1077 80.9329 18.1698 81.2047 18.2901C81.4766 18.4104 81.7203 18.5861 81.9203 18.8061C82.1203 19.0261 82.272 19.2854 82.3659 19.5675C82.4598 19.8496 82.4936 20.1482 82.4653 20.4441C82.4942 20.7404 82.4607 21.0393 82.3671 21.3219C82.2734 21.6044 82.1217 21.8642 81.9217 22.0846C81.7217 22.305 81.4778 22.4811 81.2057 22.6017C80.9335 22.7222 80.6392 22.7845 80.3416 22.7845C80.0439 22.7845 79.7496 22.7222 79.4775 22.6017C79.2053 22.4811 78.9614 22.305 78.7614 22.0846C78.5614 21.8642 78.4097 21.6044 78.3161 21.3219C78.2225 21.0393 78.189 20.7404 78.2178 20.4441ZM81.5508 20.4441C81.5508 19.4681 81.1123 18.8973 80.3428 18.8973C79.5703 18.8973 79.1358 19.4681 79.1358 20.4441C79.1358 21.428 79.5704 21.9944 80.3428 21.9944C81.1123 21.9944 81.5508 21.4241 81.5508 20.4441Z" fill="white"/>
<path d="M83.4009 21.4241C83.4009 20.6135 84.0044 20.1462 85.0757 20.0798L86.2954 20.0095V19.6208C86.2954 19.1453 85.981 18.8767 85.3736 18.8767C84.8775 18.8767 84.5337 19.0588 84.4351 19.3772H83.5747C83.6656 18.6038 84.3931 18.1077 85.4146 18.1077C86.5435 18.1077 87.1802 18.6697 87.1802 19.6208V22.6975H86.3247V22.0647H86.2544C86.1117 22.2917 85.9113 22.4767 85.6737 22.6009C85.4361 22.7252 85.1697 22.7841 84.9019 22.7717C84.7129 22.7914 84.5218 22.7712 84.341 22.7125C84.1603 22.6538 83.9938 22.5579 83.8524 22.4309C83.711 22.3039 83.5977 22.1487 83.52 21.9753C83.4422 21.8019 83.4017 21.6141 83.4009 21.4241ZM86.2954 21.0393V20.6628L85.1958 20.7331C84.5757 20.7746 84.2945 20.9856 84.2945 21.3826C84.2945 21.7878 84.646 22.0237 85.1295 22.0237C85.2711 22.038 85.4142 22.0237 85.5502 21.9816C85.6862 21.9395 85.8123 21.8705 85.9211 21.7787C86.0299 21.6868 86.1191 21.574 86.1834 21.447C86.2477 21.32 86.2858 21.1813 86.2954 21.0393Z" fill="white"/>
<path d="M88.3481 20.4441C88.3481 19.0213 89.0796 18.1199 90.2173 18.1199C90.4987 18.1069 90.778 18.1743 91.0225 18.3142C91.267 18.4541 91.4667 18.6607 91.5981 18.9099H91.6646V16.4368H92.5532V22.6975H91.7017V21.9861H91.6314C91.4897 22.2336 91.2831 22.4376 91.0339 22.5761C90.7846 22.7146 90.5022 22.7822 90.2173 22.7717C89.0718 22.7718 88.3481 21.8704 88.3481 20.4441ZM89.2661 20.4441C89.2661 21.3992 89.7163 21.9739 90.4693 21.9739C91.2183 21.9739 91.6812 21.3909 91.6812 20.448C91.6812 19.5095 91.2134 18.9182 90.4693 18.9182C89.7212 18.9182 89.2661 19.4968 89.2661 20.4441Z" fill="white"/>
<path d="M96.23 20.444C96.2017 20.1481 96.2356 19.8496 96.3294 19.5675C96.4232 19.2854 96.575 19.0261 96.7749 18.8061C96.9749 18.5861 97.2186 18.4103 97.4904 18.2901C97.7623 18.1698 98.0563 18.1077 98.3536 18.1077C98.6508 18.1077 98.9448 18.1698 99.2167 18.2901C99.4885 18.4103 99.7322 18.5861 99.9322 18.8061C100.132 19.0261 100.284 19.2854 100.378 19.5675C100.471 19.8496 100.505 20.1481 100.477 20.444C100.506 20.7403 100.472 21.0392 100.379 21.3218C100.285 21.6043 100.134 21.8641 99.9336 22.0845C99.7336 22.3049 99.4897 22.4811 99.2176 22.6016C98.9455 22.7221 98.6512 22.7844 98.3536 22.7844C98.0559 22.7844 97.7616 22.7221 97.4895 22.6016C97.2173 22.4811 96.9735 22.3049 96.7735 22.0845C96.5735 21.8641 96.4218 21.6043 96.3282 21.3218C96.2346 21.0392 96.2012 20.7403 96.23 20.444ZM99.563 20.444C99.563 19.468 99.1245 18.8972 98.355 18.8972C97.5826 18.8972 97.148 19.468 97.148 20.4441C97.148 21.4279 97.5826 21.9943 98.355 21.9943C99.1245 21.9943 99.563 21.424 99.563 20.444Z" fill="white"/>
<path d="M101.669 18.1946H102.525V18.91H102.591C102.704 18.653 102.894 18.4377 103.135 18.2939C103.376 18.15 103.655 18.085 103.935 18.1077C104.154 18.0912 104.374 18.1243 104.579 18.2044C104.783 18.2845 104.967 18.4096 105.117 18.5704C105.267 18.7313 105.378 18.9237 105.443 19.1335C105.509 19.3434 105.526 19.5652 105.494 19.7825V22.6975H104.605V20.0057C104.605 19.282 104.291 18.9222 103.633 18.9222C103.485 18.9152 103.336 18.9406 103.198 18.9964C103.06 19.0522 102.936 19.1372 102.834 19.2456C102.731 19.354 102.654 19.4832 102.606 19.6243C102.559 19.7655 102.542 19.9152 102.558 20.0633V22.6976H101.669V18.1946Z" fill="white"/>
<path d="M110.515 17.0735V18.2151H111.491V18.9636H110.515V21.2791C110.515 21.7507 110.71 21.9573 111.152 21.9573C111.265 21.9569 111.378 21.9501 111.491 21.9368V22.677C111.331 22.7055 111.169 22.7207 111.007 22.7224C110.019 22.7224 109.626 22.3747 109.626 21.5066V18.9636H108.911V18.215H109.626V17.0735H110.515Z" fill="white"/>
<path d="M112.705 16.4368H113.585V18.9182H113.656C113.774 18.6589 113.969 18.4423 114.215 18.298C114.46 18.1536 114.745 18.0885 115.029 18.1116C115.247 18.0997 115.465 18.1361 115.667 18.2181C115.869 18.3002 116.051 18.4259 116.199 18.5862C116.347 18.7465 116.458 18.9376 116.524 19.1457C116.59 19.3539 116.609 19.5739 116.579 19.7903V22.6975H115.69V20.0095C115.69 19.2903 115.355 18.926 114.727 18.926C114.574 18.9135 114.421 18.9345 114.277 18.9875C114.133 19.0406 114.003 19.1244 113.895 19.2332C113.787 19.3419 113.704 19.4729 113.652 19.6171C113.6 19.7612 113.58 19.915 113.593 20.0676V22.6975H112.705V16.4368Z" fill="white"/>
<path d="M121.761 21.4818C121.641 21.8933 121.379 22.2493 121.022 22.4874C120.666 22.7256 120.236 22.8307 119.81 22.7845C119.513 22.7923 119.219 22.7355 118.946 22.618C118.674 22.5004 118.43 22.325 118.232 22.1039C118.034 21.8827 117.887 21.6212 117.8 21.3374C117.713 21.0535 117.689 20.7543 117.73 20.4603C117.691 20.1654 117.715 19.8655 117.801 19.5808C117.888 19.2961 118.034 19.0334 118.231 18.8103C118.428 18.5872 118.671 18.409 118.942 18.2878C119.214 18.1666 119.509 18.1052 119.806 18.1077C121.059 18.1077 121.815 18.9637 121.815 20.3777V20.6878H118.635V20.7376C118.621 20.9029 118.642 21.0692 118.696 21.226C118.75 21.3827 118.837 21.5264 118.95 21.6479C119.062 21.7693 119.2 21.8658 119.352 21.9312C119.504 21.9966 119.669 22.0295 119.835 22.0276C120.047 22.0532 120.262 22.0149 120.453 21.9177C120.644 21.8205 120.802 21.6687 120.906 21.4817L121.761 21.4818ZM118.635 20.0306H120.91C120.921 19.8795 120.9 19.7277 120.849 19.5849C120.798 19.4422 120.718 19.3117 120.614 19.2019C120.509 19.092 120.383 19.0052 120.243 18.9471C120.103 18.8889 119.953 18.8606 119.801 18.8641C119.648 18.8622 119.495 18.891 119.353 18.949C119.21 19.0069 119.081 19.0928 118.972 19.2015C118.864 19.3102 118.778 19.4396 118.72 19.582C118.662 19.7244 118.633 19.8769 118.635 20.0306Z" fill="white"/>
</svg>
